Coordinates
version=1
nRows=12
nColumns=24
inDegrees=yes

Units are S.I. units (second, meters, Newtons, ...)
Angles are in degrees.

endheader
time	pelvis_tilt	pelvis_list	pelvis_rotation	pelvis_tx	pelvis_ty	pelvis_tz	hip_flexion_r	hip_adduction_r	hip_rotation_r	knee_angle_r	ankle_angle_r	subtalar_angle_r	mtp_angle_r	hip_flexion_l	hip_adduction_l	hip_rotation_l	knee_angle_l	ankle_angle_l	subtalar_angle_l	mtp_angle_l	lumbar_extension	lumbar_bending	lumbar_rotation
      1.40800000	      0.41881975	      2.53865039	     -3.31181510	      0.32683939	      1.01917938	      0.26171580	     11.17605163	     -5.66607081	     -6.62181147	    -66.13140384	      3.38407225	    -16.68484034	      2.03787117	      9.62846707	      2.76956452	    -11.14919104	    -14.40287158	      4.62817713	     -9.05270972	    -14.69313958	    -10.38589146	     -6.11399648	      3.14478266
      1.41216667	      0.40924487	      2.42463112	     -3.16880751	      0.33180052	      1.01980381	      0.26110900	     11.80651473	     -5.47601812	     -6.70055407	    -66.13244438	      3.59948154	    -16.66041210	      2.04049743	      9.24868448	      2.72479770	    -11.01566919	    -14.24170497	      4.73237535	     -8.99459665	    -14.69322070	    -10.42186312	     -5.93286333	      3.02290131
      1.41633333	      0.38333932	      2.30486296	     -2.98195606	      0.33676445	      1.02038967	      0.26042325	     12.43024439	     -5.29737373	     -6.83403259	    -66.05817945	      3.75932526	    -16.59282009	      2.04494427	      8.88947366	      2.67921514	    -10.82492449	    -14.08506215	      4.87545583	     -8.88535232	    -14.69250620	    -10.43818684	     -5.75708089	      2.79703457
      1.42050000	      0.39649069	      2.18874856	     -2.80264690	      0.34172783	      1.02101888	      0.25973424	     12.99905778	     -5.13366276	     -6.97797141	    -65.91798955	      3.90842443	    -16.54875526	      2.05153496	      8.47830628	      2.64077649	    -10.64346007	    -13.90412617	      4.98518186	     -8.81751814	    -14.69227169	    -10.49746069	     -5.56719144	      2.59001183
      1.42466667	      0.39649750	      2.10866993	     -2.69339694	      0.34675319	      1.02161367	      0.25920911	     13.58663068	     -4.99079637	     -7.05208251	    -65.72923159	      4.02997332	    -16.55260433	      2.05396293	      8.05283122	      2.62705628	    -10.54447324	    -13.67186088	      5.07179673	     -8.76562602	    -14.69105254	    -10.51582735	     -5.44097519	      2.53008122
      1.42883333	      0.40916475	      1.95079907	     -2.43966129	      0.35168276	      1.02222483	      0.25837720	     14.10478266	     -4.81312087	     -7.29350292	    -65.43869221	      4.14143875	    -16.47462382	      2.06500552	      7.65943831	      2.55016236	    -10.28666813	    -13.51955721	      5.20174193	     -8.67179307	    -14.68919238	    -10.59608894	     -5.18279210	      2.19487441
      1.43300000	      0.42355570	      1.84201408	     -2.28553484	      0.35668501	      1.02281499	      0.25775013	     14.63282267	     -4.66520980	     -7.43636027	    -65.11297109	      4.25571418	    -16.45356905	      2.07312335	      7.22408444	      2.51310042	    -10.13860773	    -13.28907353	      5.24163078	     -8.65779787	    -14.68960032	    -10.64351088	     -4.98689994	      2.03471183
      1.43716667	      0.49522713	      1.71959244	     -2.03826579	      0.36166196	      1.02348455	      0.25690260	     15.05704504	     -4.55176511	     -7.70022390	    -64.70188923	      4.31596965	    -16.42350687	      2.08916389	      6.73492728	      2.48345848	     -9.86231055	    -13.06532702	      5.35701388	     -8.63930799	    -14.69005568	    -10.76923853	     -4.76925705	      1.72030796
      1.44133333	      0.55922048	      1.59879196	     -1.84660586	      0.36664596	      1.02412225	      0.25620431	     15.48716999	     -4.41799031	     -7.90356432	    -64.23783876	      4.38561490	    -16.38796630	      2.10681115	      6.24297847	      2.44043837	     -9.65330079	    -12.82006600	      5.41463570	     -8.64813274	    -14.69235138	    -10.88102017	     -4.56730834	      1.50756570
      1.44550000	      0.61816345	      1.48128527	     -1.65524239	      0.37163815	      1.02472892	      0.25551834	     15.90678494	     -4.29187233	     -8.11375162	    -63.71739479	      4.45101478	    -16.36024030	      2.12362399	      5.75517351	      2.39676688	     -9.45170882	    -12.57229429	      5.47326190	     -8.64707295	    -14.69546415	    -10.98484174	     -4.36520579	      1.29699583
      1.44966667	      0.69754459	      1.36200649	     -1.46110942	      0.37662986	      1.02534858	      0.25483627	     16.28505057	     -4.16966925	     -8.33451182	    -63.13444049	      4.50555135	    -16.32787411	      2.13997195	      5.24111229	      2.35071330	     -9.24435900	    -12.31261732	      5.52378969	     -8.66108296	    -14.69944487	    -11.11304466	     -4.16251706	      1.07902458
      1.45383333	      0.78550656	      1.24402953	     -1.27074775	      0.38163687	      1.02595523	      0.25416447	     16.63628810	     -4.05289106	     -8.55838280	    -62.49530488	      4.55417021	    -16.29566594	      2.15419449	      4.71275914	      2.30326886	     -9.04329233	    -12.04228377	      5.56694927	     -8.68266326	    -14.70424069	    -11.24613672	     -3.95385697	      0.87808749
